<svg fill="#000000" xmlns="http://www.w3.org/2000/svg"  viewBox="0 0 50 50" width="50px" height="50px"><path d="M46,14v22c0,5.514-4.486,10-10,10H14C8.486,46,4,41.514,4,36V14C4,8.486,8.486,4,14,4h22C41.514,4,46,8.486,46,14z M32.5,13	c-3.13,0-5.82,1.92-6.94,4.65c1.64,0.67,3.06,1.83,4.04,3.35c3.48,0.04,6.46,2.18,7.74,5.22C38.97,24.85,40,22.79,40,20.5	C40,16.36,36.64,13,32.5,13z M29.5,23c-0.357,0-0.704,0.036-1.045,0.092C27.422,20.686,25.034,19,22.25,19	c-3.475,0-6.334,2.627-6.706,6.002C15.529,25.002,15.515,25,15.5,25c-3.038,0-5.5,2.462-5.5,5.5c0,0.112,0.01,0.222,0.017,0.333	C10.015,30.89,10,30.943,10,31c0,2.761,2.239,5,5,5h14v-0.025C29.166,35.987,29.331,36,29.5,36c3.59,0,6.5-2.91,6.5-6.5	C36,25.91,33.09,23,29.5,23z"/></svg>